<?xml version="1.0" encoding="utf-8"?>
<!-- Generator: Adobe Illustrator 22.0.0, SVG Export Plug-In . SVG Version: 6.00 Build 0)  -->
<svg version="1.1" id="Layer_1" xmlns="http://www.w3.org/2000/svg" xmlns:xlink="http://www.w3.org/1999/xlink" x="0px" y="0px"
	 viewBox="0 0 40 40" style="enable-background:new 0 0 40 40;" xml:space="preserve">
<style type="text/css">
	.st0{fill:#FFFFFF;}
</style>
<path class="st0" d="M36.6,25.2c0-1.7-1-3.2-2.3-3.7c0.6-0.6,0.9-1.5,0.9-2.5c0-1.9-1.4-3.5-3.1-3.5l-9-0.5c-0.3,0-0.5-0.3-0.5-0.6
	c0.1-0.7,0.4-2.1,1-3.9C24.6,7.8,23.3,0,18.4,0c-2.6,0-3.3,1.2-3.3,2.4v4.8c0,0.6-0.2,1.2-0.5,1.7l-5,8c-0.1,0.2-0.3,0.3-0.5,0.3
	H7.5c-2.5,0-4.1,5.8-4.1,10.3c0,0-0.2,9.8,6.2,11.5c6.4,1.6,19.8,0.8,19.8,0.8c1.8,0,3.3-1.5,3.3-3.3c0-0.6-0.1-1.1-0.4-1.5
	c1.7-0.3,3-1.9,3-3.9c0-0.9-0.3-1.8-0.8-2.5C35.8,28,36.6,26.7,36.6,25.2z"/>
</svg>
